<svg height="125.32122mm" viewBox="0 0 125.32095 125.32122" width="125.32095mm" xmlns="http://www.w3.org/2000/svg"><g transform="scale(.26458333)"><circle cx="236.827" cy="236.827" fill="#337180" r="236.827"/><path d="m187.461 355.54v112.928c15.923 3.377 32.422 5.187 49.351 5.187 17.011 0 33.589-1.832 49.587-5.239v-112.876z" fill="#ddb68c"/><path d="m227.508 376.698v96.72c.572.022 1.152.026 1.724.045v-96.761h-1.724z" fill="#cca885"/><path d="m216.316 376.698v96.014c.572.049 1.148.086 1.72.131v-96.144h-1.72z" fill="#cca885"/><path d="m256.094 376.698v96.107c.572-.045 1.148-.079 1.72-.131v-95.976z" fill="#cca885"/><path d="m244.897 376.698v96.75c.572-.019 1.152-.019 1.724-.045v-96.705z" fill="#cca885"/><path d="m187.465 431.397h98.938004v2.199h-98.938004z" fill="#cca885"/><path d="m187.465 445.68201h98.938004v2.199h-98.938004z" fill="#cca885"/><path d="m212.468 142.55299h49.743999v45.896h-49.743999z" fill="#c4a860"/><path d="m215.766 135.956-3.298 6.597h49.743l-3.298-6.597z" fill="#7f7b79"/><path d="m250.394 129.457s-10.875-42.324-10.875-76.766l-2.225-37.377-2.132 37.377c0 34.168-10.875 76.766-10.875 76.766l-3.298 6.593h32.706z" fill="#7f7b79"/><path d="m217.53101 150.78h39.617001v32.979h-39.617001z" fill="#d6ad29"/><path d="m209.45399 179.911h55.786999v8.519h-55.786999z" fill="#998779"/><path d="m192.51 230.952v12.217c0 3.018 2.446 5.464 5.464 5.464h79.002c3.018 0 5.464-2.446 5.464-5.464v-12.217c.003-3.014-89.93-3.014-89.93 0z" fill="#baa391"/><path d="m209.771 186.661-17.261 44.291h89.933l-17.259-44.291z" fill="#d1b399"/><path d="m192.51 239.935v61.202c0 3.022 2.446 5.464 5.464 5.464h79.002c3.018 0 5.464-2.446 5.464-5.464v-61.202c.003-3.018-89.93-3.018-89.93 0z" fill="#efc397"/><path d="m285.027 263.767h-95.097c-3.631 0-6.578 2.943-6.578 6.578v73.67c0 3.635 2.947 6.578 6.578 6.578h95.097c3.635 0 6.578-2.947 6.578-6.578v-73.67c-.001-3.635-2.947-6.578-6.578-6.578z" fill="#ddb68c"/><path d="m282.951 274.739h-90.441c-1.328 0-2.401.699-2.401 1.559v4.592c0 .86 1.073 1.559 2.401 1.559h90.442c1.324 0 2.401-.699 2.401-1.559v-4.592c-.001-.86-1.078-1.559-2.402-1.559z" fill="#cea278"/><path d="m282.951 316.076h-90.441c-1.328 0-2.401.696-2.401 1.559v4.592c0 .86 1.073 1.559 2.401 1.559h90.442c1.324 0 2.401-.699 2.401-1.559v-4.592c-.001-.863-1.078-1.559-2.402-1.559z" fill="#cea278"/><path d="m282.951 295.041h-90.441c-1.328 0-2.401.696-2.401 1.559v4.592c0 .86 1.073 1.559 2.401 1.559h90.442c1.324 0 2.401-.699 2.401-1.559v-4.592c-.001-.863-1.078-1.559-2.402-1.559z" fill="#cea278"/><path d="m285.027 334.669h-95.097c-3.631 0-6.578 2.947-6.578 6.578v10.359c0 3.635 2.947 6.578 6.578 6.578h95.097c3.635 0 6.578-2.943 6.578-6.578v-10.359c-.001-3.631-2.947-6.578-6.578-6.578z" fill="#ddb68c"/><path d="m203.395 268.12701h68.725998v68.725998h-68.725998z" fill="#ccb03a"/><path d="m205.048 269.81h65.404999v65.408997h-65.404999z" fill="#a88a6c"/><circle cx="237.463" cy="302.22501" fill="#d3aa79" r="29.131001"/><circle cx="237.463" cy="302.22501" fill="#eaded3" r="26.931999"/><path d="m237.478 281.885c-.374 0-.733.037-1.099.056v6.047c.366-.026.725-.056 1.099-.056.37 0 .733.03 1.099.056v-6.047c-.366-.018-.729-.056-1.099-.056z" fill="#c4bfbb"/><path d="m220.467 291.111c-.404.613-.767 1.249-1.099 1.903l5.239 3.033c.322-.666.681-1.305 1.099-1.907z" fill="#c4bfbb"/><path d="m250.346 308.399c-.318.666-.681 1.305-1.096 1.907l5.239 3.029c.404-.613.767-1.249 1.099-1.903z" fill="#c4bfbb"/><path d="m223.241 301.125h-6.047c-.019.366-.056.725-.056 1.099 0 .37.034.733.056 1.099h6.047c-.026-.366-.056-.729-.056-1.099 0-.373.03-.736.056-1.099z" fill="#c4bfbb"/><path d="m257.758 301.125h-6.047c.026.363.056.725.056 1.099 0 .37-.03.733-.056 1.099h6.047c.019-.366.056-.729.056-1.099 0-.373-.034-.736-.056-1.099z" fill="#c4bfbb"/><path d="m237.478 316.514c-.374 0-.733-.026-1.099-.056v6.047c.366.019.725.056 1.099.056.37 0 .733-.037 1.099-.056v-6.047c-.366.03-.729.056-1.099.056z" fill="#c4bfbb"/><path d="m245.499 314.038c-.606.411-1.249.767-1.915 1.084l3.007 5.254c.654-.329 1.298-.692 1.911-1.088z" fill="#c4bfbb"/><path d="m228.361 284.069c-.654.329-1.298.692-1.911 1.092l3.003 5.247c.606-.411 1.245-.767 1.915-1.084z" fill="#c4bfbb"/><path d="m224.576 308.335-5.254 3.003c.329.658.696 1.298 1.092 1.911l5.247-2.999c-.412-.606-.763-1.249-1.085-1.915z" fill="#c4bfbb"/><path d="m254.542 291.201-5.247 2.999c.411.602.763 1.245 1.084 1.911l5.254-3.003c-.332-.658-.695-1.294-1.091-1.907z" fill="#c4bfbb"/><path d="m229.397 313.997-3.033 5.239c.613.4 1.249.763 1.903 1.096l3.033-5.239c-.662-.322-1.305-.681-1.903-1.096z" fill="#c4bfbb"/><path d="m246.688 284.114-3.033 5.243c.662.318 1.305.681 1.903 1.092l3.033-5.239c-.612-.397-1.252-.759-1.903-1.096z" fill="#c4bfbb"/><path d="m251.711 301.125c-.135-1.784-.606-3.47-1.335-5.011-.318-.666-.673-1.309-1.084-1.911-1.002-1.473-2.27-2.741-3.736-3.751-.602-.411-1.242-.774-1.903-1.092-1.559-.752-3.272-1.23-5.078-1.369-.366-.026-.729-.056-1.099-.056-.374 0-.733.03-1.099.056-1.78.135-3.47.606-5.007 1.335-.669.318-1.313.669-1.915 1.084-1.47 1.002-2.741 2.27-3.747 3.736-.419.602-.778 1.242-1.099 1.907-.752 1.559-1.227 3.268-1.365 5.078-.026.363-.056.725-.056 1.099 0 .37.03.733.056 1.099.135 1.784.606 3.47 1.335 5.011.318.666.673 1.313 1.084 1.915 1.002 1.47 2.27 2.737 3.736 3.747.602.415 1.242.774 1.903 1.096 1.559.752 3.272 1.227 5.078 1.365.366.03.725.056 1.099.056.37 0 .733-.026 1.099-.056 1.78-.135 3.47-.606 5.007-1.335.666-.314 1.313-.669 1.915-1.084 1.47-1.002 2.741-2.27 3.747-3.732.419-.602.778-1.245 1.096-1.907.752-1.559 1.227-3.268 1.369-5.075.026-.366.056-.729.056-1.099.003-.38-.027-.743-.057-1.106zm-2.195 2.199c-.127 1.406-.505 2.745-1.077 3.975-.31.669-.677 1.309-1.099 1.903-.804 1.133-1.795 2.12-2.932 2.921-.602.419-1.242.785-1.911 1.092-1.212.553-2.532.92-3.919 1.047-.363.034-.729.06-1.099.06-.374 0-.737-.022-1.099-.06-1.41-.127-2.745-.505-3.975-1.073-.669-.31-1.305-.677-1.9-1.103-1.133-.804-2.12-1.795-2.921-2.932-.423-.598-.785-1.238-1.092-1.907-.557-1.215-.924-2.532-1.047-3.919-.034-.363-.056-.729-.056-1.099 0-.374.022-.737.056-1.099.127-1.41.505-2.745 1.077-3.975.31-.669.677-1.309 1.099-1.903.804-1.133 1.795-2.12 2.932-2.921.602-.419 1.242-.785 1.907-1.092 1.215-.557 2.532-.924 3.919-1.047.363-.034.725-.056 1.099-.056.37 0 .737.019 1.099.056 1.41.127 2.745.505 3.975 1.077.669.31 1.305.681 1.9 1.099 1.133.804 2.12 1.795 2.921 2.936.423.598.785 1.238 1.092 1.907.553 1.212.924 2.528 1.047 3.919.034.363.056.725.056 1.099 0 .366-.022.733-.052 1.095z" fill="#c4bfbb"/><path d="m259.956 301.125c-.157-3.268-1.006-6.35-2.416-9.11-.333-.654-.699-1.294-1.092-1.907-1.743-2.719-4.046-5.041-6.757-6.795-.613-.4-1.245-.767-1.903-1.103-2.782-1.443-5.905-2.304-9.211-2.464-.366-.019-.729-.056-1.099-.056-.374 0-.733.034-1.099.056-3.265.157-6.35 1.006-9.106 2.416-.658.333-1.294.699-1.911 1.092-2.719 1.743-5.041 4.046-6.795 6.757-.396.613-.767 1.245-1.103 1.9-1.44 2.786-2.304 5.905-2.464 9.214-.019.366-.056.725-.056 1.099 0 .37.037.733.056 1.099.157 3.268 1.006 6.35 2.416 9.11.333.654.696 1.294 1.092 1.907 1.743 2.722 4.046 5.041 6.757 6.795.613.4 1.245.767 1.903 1.103 2.782 1.443 5.905 2.307 9.211 2.464.366.019.725.06 1.099.06.37 0 .733-.037 1.099-.06 3.265-.157 6.35-1.006 9.106-2.412.658-.337 1.294-.699 1.911-1.092 2.719-1.743 5.041-4.05 6.795-6.757.396-.617.767-1.249 1.103-1.903 1.44-2.786 2.304-5.909 2.464-9.214.019-.366.056-.729.056-1.099.001-.374-.037-.737-.056-1.1zm-2.198 2.199c-.157 2.906-.916 5.65-2.173 8.107-.333.654-.696 1.294-1.099 1.903-1.556 2.378-3.597 4.405-5.983 5.95-.613.396-1.253.759-1.911 1.088-2.438 1.23-5.146 1.974-8.018 2.128-.366.019-.729.056-1.099.056-.374 0-.733-.037-1.099-.056-2.906-.157-5.65-.916-8.111-2.173-.654-.337-1.29-.699-1.903-1.096-2.378-1.559-4.405-3.601-5.95-5.987-.396-.617-.759-1.253-1.092-1.911-1.227-2.434-1.974-5.146-2.128-8.014-.019-.366-.056-.729-.056-1.099 0-.374.034-.733.056-1.099.157-2.906.916-5.651 2.173-8.111.333-.654.696-1.294 1.099-1.903 1.556-2.378 3.597-4.405 5.983-5.95.613-.396 1.253-.759 1.911-1.092 2.438-1.23 5.146-1.974 8.018-2.128.366-.019.725-.056 1.099-.056.37 0 .733.037 1.099.056 2.906.157 5.65.916 8.111 2.173.654.337 1.29.699 1.903 1.096 2.378 1.559 4.405 3.601 5.95 5.991.396.613.759 1.249 1.092 1.907 1.227 2.434 1.974 5.146 2.128 8.018.019.366.056.725.056 1.099s-.034.737-.056 1.103z" fill="#c4bfbb"/><path d="m259.807 314.319-26.891-15.553-.52-1.028s-.325.31-.621.456c-.37.183-.86.284-.86.284s.142.482.183.811c.041.333-.079.823-.079.823l1.133-.262 27.037 15.635s.445.034.651-.378c.206-.411-.033-.788-.033-.788z" fill="#6b6663"/><path d="m238.783 295.161c-.284-.236-.438-.793-.438-.793s-.34.524-.752.632c-.595.161-1.047.628-1.133.957s.606 1.458.606 1.458l-2.801 16.477 1.286.221 2.805-16.525s1.178-.546 1.212-1.025c.041-.49-.153-.89-.785-1.402z" fill="#6b6663"/><path d="m236.016 313.474c-.434-.112-.871.004-1.185.277-.146-.389-.467-.707-.905-.819-.703-.183-1.421.239-1.604.942s1.264 3.698 1.582 3.429c.146.393 2.876-1.511 3.059-2.214.178-.711-.24-1.432-.947-1.615z" fill="#6b6663"/><circle cx="233.91" cy="317.41501" fill="#6b6663" r=".733"/><path d="m203.732 336.853-8.59 14.473h85.218l-8.586-14.473z" fill="#a8886d"/><g fill="#897664"><path d="m211.17 342.971h-2.779c-.531 0-.961.681-.961 1.518v6.836h4.701v-6.836c0-.837-.43-1.518-.961-1.518z"/><path d="m229.389 342.971h-2.778c-.535 0-.961.681-.961 1.518v6.836h4.701v-6.836c.003-.837-.431-1.518-.962-1.518z"/><path d="m247.608 342.971h-2.778c-.531 0-.961.681-.961 1.518v6.836h4.701v-6.836c.003-.837-.431-1.518-.962-1.518z"/><path d="m265.831 342.971h-2.779c-.531 0-.961.681-.961 1.518v6.836h4.701v-6.836c0-.837-.433-1.518-.961-1.518z"/><path d="m220.28 342.971h-2.779c-.531 0-.961.681-.961 1.518v6.836h4.701v-6.836c0-.837-.43-1.518-.961-1.518z"/><path d="m238.503 342.971h-2.782c-.531 0-.961.681-.961 1.518v6.836h4.701v-6.836c.003-.837-.431-1.518-.958-1.518z"/><path d="m256.718 342.971h-2.779c-.535 0-.961.681-.961 1.518v6.836h4.697v-6.836c.004-.837-.426-1.518-.957-1.518z"/><path d="m211.17 243.027h-2.779c-.531 0-.961.681-.961 1.518v9.274c0 .838.43 1.518.961 1.518h2.779c.531 0 .961-.681.961-1.518v-9.274c0-.837-.43-1.518-.961-1.518z"/><path d="m229.389 243.027h-2.778c-.535 0-.961.681-.961 1.518v9.274c0 .838.426 1.518.961 1.518h2.778c.531 0 .961-.681.961-1.518v-9.274c.004-.837-.43-1.518-.961-1.518z"/><path d="m247.608 243.027h-2.778c-.531 0-.961.681-.961 1.518v9.274c0 .838.43 1.518.961 1.518h2.778c.531 0 .961-.681.961-1.518v-9.274c.004-.837-.43-1.518-.961-1.518z"/><path d="m265.831 243.027h-2.779c-.531 0-.961.681-.961 1.518v9.274c0 .838.43 1.518.961 1.518h2.779c.531 0 .961-.681.961-1.518v-9.274c0-.837-.433-1.518-.961-1.518z"/><path d="m220.28 243.027h-2.779c-.531 0-.961.681-.961 1.518v9.274c0 .838.434 1.518.961 1.518h2.779c.531 0 .961-.681.961-1.518v-9.274c0-.837-.43-1.518-.961-1.518z"/><path d="m238.503 243.027h-2.782c-.531 0-.961.681-.961 1.518v9.274c0 .838.43 1.518.961 1.518h2.782c.531 0 .961-.681.961-1.518v-9.274c0-.837-.434-1.518-.961-1.518z"/><path d="m256.718 243.027h-2.779c-.535 0-.961.681-.961 1.518v9.274c0 .838.426 1.518.961 1.518h2.779c.531 0 .961-.681.961-1.518v-9.274c0-.837-.43-1.518-.961-1.518z"/><path d="m212.931 213.676h-2.588c-.497 0-.898.553-.898 1.238v7.539c0 .684.4 1.234.898 1.234h2.588c.494 0 .894-.55.894-1.234v-7.539c0-.685-.4-1.238-.894-1.238z"/><path d="m229.913 213.676h-2.588c-.497 0-.897.553-.897 1.238v7.539c0 .684.4 1.234.897 1.234h2.588c.494 0 .894-.55.894-1.234v-7.539c.003-.685-.397-1.238-.894-1.238z"/><path d="m246.894 213.676h-2.588c-.497 0-.897.553-.897 1.238v7.539c0 .684.4 1.234.897 1.234h2.588c.497 0 .897-.55.897-1.234v-7.539c.004-.685-.399-1.238-.897-1.238z"/><path d="m263.879 213.676h-2.592c-.494 0-.894.553-.894 1.238v7.539c0 .684.4 1.234.894 1.234h2.592c.494 0 .897-.55.897-1.234v-7.539c.001-.685-.403-1.238-.897-1.238z"/><path d="m221.241 194.806h-2.588c-.494 0-.894.553-.894 1.234v7.539c0 .681.4 1.234.894 1.234h2.588c.497 0 .897-.553.897-1.234v-7.539c0-.681-.404-1.234-.897-1.234z"/><path d="m238.222 194.806h-2.588c-.497 0-.897.553-.897 1.234v7.539c0 .681.4 1.234.897 1.234h2.588c.497 0 .897-.553.897-1.234v-7.539c.001-.681-.4-1.234-.897-1.234z"/><path d="m255.207 194.806h-2.592c-.494 0-.894.553-.894 1.234v7.539c0 .681.4 1.234.894 1.234h2.592c.494 0 .897-.553.897-1.234v-7.539c.001-.681-.403-1.234-.897-1.234z"/><path d="m222.935 152.358h-2.311c-.441 0-.8 1.466-.8 3.28v20.059c0 1.814.359 3.28.8 3.28h2.311c.441 0 .8-1.466.8-3.28v-20.059c0-1.814-.359-3.28-.8-3.28z"/><path d="m238.084 152.358h-2.311c-.441 0-.797 1.466-.797 3.28v20.059c0 1.814.355 3.28.797 3.28h2.311c.438 0 .797-1.466.797-3.28v-20.059c.003-1.814-.356-3.28-.797-3.28z"/><path d="m253.233 152.358h-2.311c-.445 0-.8 1.466-.8 3.28v20.059c0 1.814.355 3.28.8 3.28h2.311c.441 0 .797-1.466.797-3.28v-20.059c-.001-1.814-.356-3.28-.797-3.28z"/><path d="m230.631 152.358h-2.311c-.441 0-.8 1.466-.8 3.28v20.059c0 1.814.359 3.28.8 3.28h2.311c.441 0 .797-1.466.797-3.28v-20.059c-.001-1.814-.36-3.28-.797-3.28z"/><path d="m245.78 152.358h-2.311c-.441 0-.797 1.466-.797 3.28v20.059c0 1.814.359 3.28.797 3.28h2.311c.441 0 .797-1.466.797-3.28v-20.059c-.001-1.814-.356-3.28-.797-3.28z"/></g><path d="m267.226 366.617h-59.773c-3.302 0-5.98 1.215-5.98 2.719v6.679c0 1.5 2.678 2.719 5.98 2.719h59.773c3.298 0 5.976-1.219 5.976-2.719v-6.679c0-1.504-2.677-2.719-5.976-2.719z" fill="#e5c3a1"/><path d="m240.559 48.36h-6.163c-1.028 0-1.866.591-1.866 1.32v3.04c0 .729.834 1.32 1.866 1.32h6.159c1.028 0 1.866-.591 1.866-1.32v-3.04c.001-.733-.833-1.32-1.862-1.32z" fill="#7f7b79"/><path d="m211.17 370.27h-2.779c-.531 0-.961.681-.961 1.515v6.84h4.701v-6.84c0-.834-.43-1.515-.961-1.515z" fill="#897664"/><path d="m229.389 370.27h-2.778c-.535 0-.961.681-.961 1.515v6.84h4.701v-6.84c.003-.834-.431-1.515-.962-1.515z" fill="#897664"/><path d="m247.608 370.27h-2.778c-.531 0-.961.681-.961 1.515v6.84h4.701v-6.84c.003-.834-.431-1.515-.962-1.515z" fill="#897664"/><path d="m265.831 370.27h-2.779c-.531 0-.961.681-.961 1.515v6.84h4.701v-6.84c0-.834-.433-1.515-.961-1.515z" fill="#897664"/><path d="m220.28 370.27h-2.779c-.531 0-.961.681-.961 1.515v6.84h4.701v-6.84c0-.834-.43-1.515-.961-1.515z" fill="#897664"/><path d="m238.503 370.27h-2.782c-.531 0-.961.681-.961 1.515v6.84h4.701v-6.84c.003-.834-.431-1.515-.958-1.515z" fill="#897664"/><path d="m256.718 370.27h-2.779c-.535 0-.961.681-.961 1.515v6.84h4.697v-6.84c.004-.834-.426-1.515-.957-1.515z" fill="#897664"/></g></svg>